<svg xmlns="http://www.w3.org/2000/svg" xmlns:xlink="http://www.w3.org/1999/xlink" width="500" zoomAndPan="magnify" viewBox="0 0 375 374.999991" height="500" preserveAspectRatio="xMidYMid meet" version="1.0"><defs><clipPath id="id1"><path d="M 110 155 L 185 155 L 185 274 L 110 274 Z M 110 155 " clip-rule="nonzero"/></clipPath><clipPath id="id2"><path d="M 156.890625 285.269531 L 85.746094 214.125 L 164.300781 135.570312 L 235.445312 206.714844 Z M 156.890625 285.269531 " clip-rule="nonzero"/></clipPath><clipPath id="id3"><path d="M 156.890625 285.269531 L 85.746094 214.125 L 164.300781 135.570312 L 235.445312 206.714844 Z M 156.890625 285.269531 " clip-rule="nonzero"/></clipPath><clipPath id="id4"><path d="M 141.921875 187.355469 C 140.601562 188.675781 139.382812 190.085938 138.273438 191.589844 C 137.160156 193.089844 136.164062 194.664062 135.285156 196.3125 C 134.40625 197.960938 133.65625 199.667969 133.027344 201.425781 C 132.402344 203.1875 131.90625 204.984375 131.546875 206.820312 C 131.183594 208.65625 130.960938 210.507812 130.871094 212.375 C 130.785156 214.246094 130.832031 216.113281 131.019531 217.976562 C 131.207031 219.835938 131.53125 221.675781 131.988281 223.492188 C 132.449219 225.308594 133.035156 227.082031 133.757812 228.8125 C 134.476562 230.546875 135.320312 232.214844 136.285156 233.820312 C 137.25 235.429688 138.328125 236.957031 139.519531 238.40625 C 140.710938 239.855469 142 241.210938 143.390625 242.46875 C 144.777344 243.730469 146.253906 244.878906 147.808594 245.921875 C 149.367188 246.964844 150.996094 247.890625 152.6875 248.691406 C 154.382812 249.496094 156.125 250.171875 157.917969 250.71875 C 159.710938 251.265625 161.53125 251.679688 163.382812 251.957031 C 165.234375 252.234375 167.097656 252.375 168.96875 252.378906 L 168.960938 249.621094 C 167.804688 249.617188 166.652344 249.558594 165.5 249.445312 C 164.347656 249.328125 163.207031 249.15625 162.070312 248.925781 C 160.9375 248.699219 159.816406 248.417969 158.710938 248.078125 C 157.601562 247.738281 156.515625 247.347656 155.445312 246.902344 C 154.375 246.457031 153.332031 245.960938 152.308594 245.414062 C 151.289062 244.867188 150.296875 244.273438 149.335938 243.628906 C 148.371094 242.984375 147.445312 242.292969 146.546875 241.558594 C 145.652344 240.820312 144.796875 240.042969 143.976562 239.222656 C 143.15625 238.40625 142.378906 237.546875 141.644531 236.652344 C 140.910156 235.757812 140.21875 234.828125 139.578125 233.863281 C 138.933594 232.902344 138.335938 231.910156 137.789062 230.890625 C 137.242188 229.867188 136.746094 228.824219 136.300781 227.753906 C 135.859375 226.683594 135.464844 225.597656 135.128906 224.488281 C 134.792969 223.382812 134.507812 222.261719 134.28125 221.125 C 134.054688 219.992188 133.882812 218.847656 133.765625 217.699219 C 133.652344 216.546875 133.589844 215.394531 133.589844 214.238281 C 133.585938 213.082031 133.640625 211.929688 133.753906 210.777344 C 133.863281 209.628906 134.03125 208.484375 134.253906 207.351562 C 134.476562 206.21875 134.757812 205.097656 135.089844 203.992188 C 135.421875 202.886719 135.808594 201.800781 136.25 200.734375 C 136.691406 199.667969 137.183594 198.625 137.726562 197.605469 C 138.269531 196.585938 138.859375 195.597656 139.5 194.636719 C 140.140625 193.675781 140.828125 192.75 141.558594 191.859375 C 142.292969 190.96875 143.066406 190.113281 143.882812 189.296875 C 144.699219 188.480469 145.550781 187.707031 146.445312 186.976562 C 147.335938 186.246094 148.261719 185.558594 149.222656 184.917969 C 150.183594 184.277344 151.171875 183.6875 152.191406 183.144531 C 153.210938 182.601562 154.253906 182.109375 155.320312 181.671875 C 156.386719 181.230469 157.476562 180.84375 158.582031 180.511719 C 159.6875 180.179688 160.804688 179.898438 161.941406 179.675781 C 163.074219 179.453125 164.214844 179.285156 165.367188 179.175781 C 166.515625 179.066406 167.667969 179.011719 168.824219 179.015625 L 184.402344 179.046875 L 184.394531 176.289062 L 168.816406 176.277344 C 166.316406 176.261719 163.839844 176.496094 161.390625 176.972656 C 158.9375 177.453125 156.554688 178.167969 154.25 179.117188 C 151.941406 180.066406 149.75 181.238281 147.671875 182.625 C 145.597656 184.011719 143.683594 185.589844 141.921875 187.355469 Z M 151.707031 197.144531 C 150.867188 197.984375 150.09375 198.882812 149.382812 199.839844 C 148.675781 200.796875 148.042969 201.800781 147.480469 202.847656 C 146.921875 203.898438 146.441406 204.984375 146.042969 206.105469 C 145.644531 207.230469 145.328125 208.375 145.097656 209.542969 C 144.867188 210.710938 144.726562 211.890625 144.667969 213.082031 C 144.613281 214.273438 144.644531 215.460938 144.765625 216.648438 C 144.882812 217.835938 145.089844 219.007812 145.382812 220.164062 C 145.671875 221.324219 146.050781 222.453125 146.507812 223.554688 C 146.964844 224.65625 147.503906 225.71875 148.117188 226.746094 C 148.734375 227.769531 149.417969 228.742188 150.175781 229.664062 C 150.9375 230.589844 151.757812 231.453125 152.644531 232.253906 C 153.527344 233.058594 154.464844 233.789062 155.460938 234.453125 C 156.453125 235.121094 157.488281 235.707031 158.566406 236.21875 C 159.644531 236.730469 160.753906 237.164062 161.898438 237.511719 C 163.039062 237.859375 164.199219 238.121094 165.378906 238.300781 C 166.558594 238.476562 167.746094 238.566406 168.9375 238.570312 L 168.929688 235.808594 C 168.226562 235.808594 167.523438 235.773438 166.824219 235.703125 C 166.125 235.632812 165.429688 235.527344 164.738281 235.390625 C 164.046875 235.25 163.363281 235.078125 162.691406 234.875 C 162.015625 234.667969 161.355469 234.429688 160.703125 234.160156 C 160.050781 233.890625 159.414062 233.585938 158.792969 233.253906 C 158.171875 232.921875 157.570312 232.558594 156.984375 232.167969 C 156.398438 231.773438 155.832031 231.355469 155.285156 230.90625 C 154.742188 230.457031 154.21875 229.984375 153.71875 229.488281 C 153.222656 228.988281 152.746094 228.464844 152.300781 227.921875 C 151.851562 227.375 151.433594 226.8125 151.039062 226.226562 C 150.648438 225.636719 150.285156 225.035156 149.953125 224.414062 C 149.617188 223.792969 149.316406 223.15625 149.046875 222.503906 C 148.773438 221.855469 148.535156 221.191406 148.332031 220.515625 C 148.125 219.84375 147.953125 219.160156 147.816406 218.46875 C 147.675781 217.78125 147.570312 217.085938 147.5 216.382812 C 147.429688 215.683594 147.394531 214.980469 147.394531 214.277344 C 147.390625 213.574219 147.425781 212.871094 147.492188 212.171875 C 147.558594 211.46875 147.660156 210.773438 147.796875 210.085938 C 147.933594 209.394531 148.101562 208.714844 148.304688 208.039062 C 148.507812 207.367188 148.746094 206.707031 149.011719 206.054688 C 149.28125 205.40625 149.578125 204.769531 149.910156 204.152344 C 150.242188 203.53125 150.601562 202.929688 150.992188 202.34375 C 151.382812 201.761719 151.800781 201.195312 152.246094 200.652344 C 152.691406 200.109375 153.160156 199.589844 153.660156 199.09375 C 154.15625 198.597656 154.675781 198.125 155.21875 197.679688 C 155.761719 197.234375 156.324219 196.816406 156.910156 196.429688 C 157.496094 196.039062 158.097656 195.679688 158.71875 195.347656 C 159.335938 195.019531 159.972656 194.71875 160.621094 194.449219 C 161.273438 194.183594 161.933594 193.949219 162.605469 193.746094 C 163.28125 193.542969 163.960938 193.375 164.652344 193.238281 C 165.34375 193.101562 166.039062 193 166.738281 192.933594 C 167.4375 192.867188 168.140625 192.832031 168.84375 192.835938 L 184.441406 192.867188 L 184.433594 190.109375 L 168.835938 190.078125 C 167.242188 190.070312 165.667969 190.21875 164.105469 190.523438 C 162.542969 190.828125 161.027344 191.285156 159.558594 191.890625 C 158.085938 192.5 156.691406 193.242188 155.371094 194.128906 C 154.050781 195.011719 152.828125 196.015625 151.707031 197.144531 Z M 146.804688 192.242188 C 145.726562 193.320312 144.730469 194.476562 143.820312 195.703125 C 142.914062 196.933594 142.097656 198.222656 141.378906 199.570312 C 140.664062 200.917969 140.046875 202.3125 139.535156 203.753906 C 139.023438 205.195312 138.617188 206.667969 138.324219 208.167969 C 138.027344 209.667969 137.84375 211.183594 137.769531 212.714844 C 137.699219 214.242188 137.742188 215.769531 137.894531 217.292969 C 138.046875 218.816406 138.3125 220.320312 138.6875 221.808594 C 139.0625 223.292969 139.542969 224.746094 140.132812 226.160156 C 140.71875 227.578125 141.410156 228.941406 142.199219 230.257812 C 142.988281 231.574219 143.871094 232.824219 144.84375 234.007812 C 145.816406 235.195312 146.871094 236.304688 148.007812 237.335938 C 149.144531 238.367188 150.351562 239.308594 151.625 240.160156 C 152.898438 241.015625 154.230469 241.773438 155.613281 242.429688 C 157 243.089844 158.425781 243.640625 159.890625 244.089844 C 161.355469 244.539062 162.847656 244.878906 164.363281 245.105469 C 165.875 245.335938 167.398438 245.453125 168.929688 245.457031 L 168.945312 242.714844 C 168.03125 242.691406 167.117188 242.621094 166.210938 242.511719 C 165.300781 242.398438 164.398438 242.242188 163.503906 242.042969 C 162.609375 241.839844 161.726562 241.597656 160.855469 241.3125 C 159.984375 241.027344 159.128906 240.703125 158.289062 240.335938 C 157.449219 239.964844 156.628906 239.558594 155.828125 239.113281 C 155.027344 238.664062 154.25 238.179688 153.496094 237.660156 C 152.742188 237.136719 152.011719 236.578125 151.3125 235.988281 C 150.613281 235.394531 149.941406 234.769531 149.300781 234.113281 C 148.660156 233.457031 148.050781 232.773438 147.476562 232.058594 C 146.902344 231.339844 146.363281 230.601562 145.859375 229.832031 C 145.359375 229.066406 144.894531 228.277344 144.464844 227.464844 C 144.039062 226.652344 143.652344 225.824219 143.304688 224.976562 C 142.957031 224.125 142.652344 223.261719 142.390625 222.386719 C 142.125 221.507812 141.90625 220.617188 141.726562 219.71875 C 141.550781 218.820312 141.414062 217.914062 141.324219 217.003906 C 141.234375 216.09375 141.191406 215.179688 141.1875 214.265625 C 141.1875 213.347656 141.226562 212.433594 141.316406 211.523438 C 141.402344 210.613281 141.53125 209.707031 141.707031 208.808594 C 141.878906 207.910156 142.097656 207.023438 142.355469 206.148438 C 142.617188 205.269531 142.917969 204.410156 143.261719 203.5625 C 143.605469 202.714844 143.988281 201.886719 144.410156 201.074219 C 144.835938 200.265625 145.296875 199.480469 145.796875 198.714844 C 146.296875 197.949219 146.832031 197.210938 147.40625 196.496094 C 147.976562 195.785156 148.582031 195.101562 149.21875 194.449219 C 149.855469 193.792969 150.527344 193.171875 151.222656 192.582031 C 151.921875 191.992188 152.648438 191.441406 153.398438 190.921875 C 154.152344 190.402344 154.925781 189.921875 155.726562 189.476562 C 156.527344 189.035156 157.34375 188.628906 158.183594 188.265625 C 159.023438 187.902344 159.875 187.578125 160.746094 187.296875 C 161.617188 187.015625 162.496094 186.777344 163.390625 186.582031 C 164.285156 186.386719 165.1875 186.234375 166.09375 186.125 C 167.003906 186.015625 167.914062 185.949219 168.828125 185.929688 L 184.417969 185.960938 L 184.410156 183.203125 L 168.820312 183.171875 C 166.777344 183.164062 164.75 183.355469 162.742188 183.746094 C 160.738281 184.140625 158.789062 184.726562 156.902344 185.503906 C 155.011719 186.285156 153.21875 187.242188 151.523438 188.375 C 149.824219 189.511719 148.257812 190.804688 146.816406 192.25 Z M 132.125 177.558594 C 130.925781 178.757812 129.789062 180.011719 128.714844 181.324219 C 127.640625 182.636719 126.632812 183.996094 125.695312 185.40625 C 124.753906 186.816406 123.882812 188.269531 123.085938 189.765625 C 122.289062 191.261719 121.566406 192.792969 120.921875 194.363281 C 120.277344 195.929688 119.707031 197.527344 119.21875 199.152344 C 118.730469 200.777344 118.320312 202.421875 117.992188 204.085938 C 117.667969 205.75 117.421875 207.429688 117.257812 209.121094 C 117.097656 210.808594 117.015625 212.503906 117.019531 214.203125 C 117.023438 215.902344 117.113281 217.597656 117.28125 219.289062 C 117.453125 220.980469 117.707031 222.65625 118.042969 224.324219 C 118.375 225.992188 118.792969 227.636719 119.289062 229.265625 C 119.785156 230.890625 120.363281 232.492188 121.015625 234.0625 C 121.667969 235.632812 122.398438 237.167969 123.203125 238.667969 C 124.007812 240.167969 124.882812 241.625 125.832031 243.039062 C 126.777344 244.453125 127.792969 245.820312 128.871094 247.136719 C 129.953125 248.449219 131.09375 249.710938 132.296875 250.914062 C 134.707031 253.335938 137.324219 255.496094 140.160156 257.402344 C 142.992188 259.304688 145.984375 260.910156 149.132812 262.222656 C 152.28125 263.535156 155.53125 264.523438 158.871094 265.191406 C 162.214844 265.859375 165.589844 266.191406 168.996094 266.191406 L 168.980469 263.441406 C 167.371094 263.4375 165.765625 263.355469 164.164062 263.195312 C 162.5625 263.035156 160.976562 262.796875 159.398438 262.480469 C 157.820312 262.160156 156.257812 261.769531 154.71875 261.296875 C 153.179688 260.828125 151.664062 260.285156 150.179688 259.664062 C 148.691406 259.046875 147.238281 258.355469 145.816406 257.59375 C 144.398438 256.835938 143.019531 256.003906 141.679688 255.109375 C 140.339844 254.210938 139.046875 253.253906 137.800781 252.230469 C 136.558594 251.207031 135.363281 250.125 134.222656 248.984375 C 133.085938 247.847656 132.003906 246.652344 130.980469 245.410156 C 129.957031 244.164062 129 242.871094 128.101562 241.53125 C 127.207031 240.191406 126.375 238.8125 125.617188 237.394531 C 124.855469 235.972656 124.164062 234.519531 123.546875 233.03125 C 122.925781 231.546875 122.382812 230.03125 121.914062 228.492188 C 121.441406 226.953125 121.050781 225.390625 120.730469 223.8125 C 120.414062 222.234375 120.175781 220.648438 120.015625 219.046875 C 119.855469 217.445312 119.773438 215.839844 119.769531 214.230469 C 119.765625 212.625 119.839844 211.019531 119.996094 209.417969 C 120.148438 207.820312 120.382812 206.230469 120.691406 204.652344 C 121.003906 203.074219 121.390625 201.519531 121.855469 199.980469 C 122.316406 198.441406 122.855469 196.929688 123.46875 195.445312 C 124.082031 193.960938 124.765625 192.511719 125.519531 191.09375 C 126.273438 189.675781 127.097656 188.300781 127.988281 186.964844 C 128.878906 185.628906 129.832031 184.339844 130.851562 183.101562 C 131.871094 181.859375 132.945312 180.671875 134.082031 179.535156 C 135.214844 178.402344 136.402344 177.324219 137.644531 176.308594 C 138.886719 175.289062 140.175781 174.335938 141.507812 173.445312 C 142.84375 172.554688 144.222656 171.730469 145.636719 170.976562 C 147.054688 170.21875 148.507812 169.535156 149.992188 168.921875 C 151.476562 168.3125 152.988281 167.773438 154.523438 167.308594 C 156.0625 166.84375 157.621094 166.457031 159.199219 166.148438 C 160.773438 165.835938 162.363281 165.605469 163.964844 165.449219 C 165.5625 165.296875 167.167969 165.21875 168.777344 165.222656 L 184.347656 165.246094 L 184.339844 162.488281 L 168.777344 162.457031 C 165.371094 162.4375 161.996094 162.757812 158.65625 163.410156 C 155.316406 164.0625 152.074219 165.039062 148.925781 166.335938 C 145.78125 167.632812 142.796875 169.226562 139.972656 171.117188 C 137.144531 173.007812 134.53125 175.160156 132.136719 177.570312 Z M 156.589844 202.023438 C 155.988281 202.625 155.433594 203.269531 154.929688 203.953125 C 154.421875 204.636719 153.96875 205.355469 153.566406 206.105469 C 153.167969 206.855469 152.824219 207.632812 152.539062 208.4375 C 152.253906 209.238281 152.027344 210.058594 151.863281 210.894531 C 151.699219 211.730469 151.597656 212.574219 151.558594 213.425781 C 151.515625 214.277344 151.539062 215.125 151.625 215.976562 C 151.710938 216.824219 151.859375 217.664062 152.066406 218.488281 C 152.273438 219.316406 152.542969 220.125 152.871094 220.914062 C 153.199219 221.703125 153.582031 222.464844 154.023438 223.195312 C 154.464844 223.929688 154.953125 224.625 155.496094 225.285156 C 156.039062 225.945312 156.625 226.5625 157.257812 227.136719 C 157.890625 227.710938 158.5625 228.234375 159.273438 228.710938 C 159.984375 229.1875 160.722656 229.605469 161.496094 229.972656 C 162.265625 230.339844 163.0625 230.648438 163.878906 230.894531 C 164.695312 231.144531 165.523438 231.335938 166.367188 231.460938 C 167.210938 231.589844 168.058594 231.652344 168.914062 231.65625 L 168.910156 228.898438 C 167.953125 228.894531 167.003906 228.800781 166.0625 228.609375 C 165.125 228.421875 164.210938 228.144531 163.328125 227.777344 C 162.441406 227.40625 161.597656 226.957031 160.800781 226.421875 C 160.003906 225.890625 159.265625 225.28125 158.589844 224.605469 C 157.910156 223.925781 157.304688 223.1875 156.769531 222.390625 C 156.238281 221.59375 155.785156 220.753906 155.417969 219.867188 C 155.050781 218.980469 154.769531 218.070312 154.582031 217.128906 C 154.394531 216.191406 154.296875 215.242188 154.296875 214.285156 C 154.292969 213.324219 154.386719 212.378906 154.570312 211.4375 C 154.753906 210.5 155.03125 209.589844 155.394531 208.703125 C 155.757812 207.820312 156.207031 206.980469 156.734375 206.1875 C 157.265625 205.390625 157.871094 204.65625 158.546875 203.980469 C 159.222656 203.304688 159.957031 202.703125 160.75 202.171875 C 161.546875 201.640625 162.386719 201.195312 163.269531 200.828125 C 164.152344 200.464844 165.066406 200.191406 166.003906 200.003906 C 166.941406 199.820312 167.890625 199.726562 168.847656 199.730469 L 184.457031 199.785156 L 184.441406 197.027344 L 168.839844 196.992188 C 166.542969 196.980469 164.332031 197.414062 162.210938 198.289062 C 160.089844 199.160156 158.21875 200.410156 156.601562 202.035156 Z M 137.019531 182.453125 C 135.457031 184.015625 134.019531 185.679688 132.707031 187.453125 C 131.390625 189.226562 130.214844 191.089844 129.175781 193.035156 C 128.136719 194.984375 127.246094 197 126.503906 199.082031 C 125.765625 201.160156 125.179688 203.285156 124.753906 205.453125 C 124.324219 207.621094 124.058594 209.8125 123.957031 212.019531 C 123.851562 214.230469 123.910156 216.433594 124.132812 218.636719 C 124.351562 220.835938 124.734375 223.011719 125.277344 225.15625 C 125.816406 227.304688 126.515625 229.402344 127.363281 231.445312 C 128.214844 233.492188 129.210938 235.464844 130.351562 237.363281 C 131.492188 239.261719 132.769531 241.066406 134.175781 242.78125 C 135.582031 244.492188 137.105469 246.09375 138.75 247.582031 C 140.390625 249.070312 142.132812 250.429688 143.976562 251.664062 C 145.816406 252.894531 147.738281 253.984375 149.738281 254.933594 C 151.742188 255.882812 153.800781 256.683594 155.917969 257.328125 C 158.039062 257.972656 160.191406 258.460938 162.378906 258.789062 C 164.570312 259.117188 166.769531 259.285156 168.980469 259.285156 L 168.976562 256.527344 C 167.601562 256.511719 166.230469 256.429688 164.863281 256.28125 C 163.496094 256.132812 162.140625 255.917969 160.792969 255.636719 C 159.445312 255.351562 158.117188 255.007812 156.804688 254.59375 C 155.488281 254.183594 154.199219 253.710938 152.933594 253.171875 C 151.664062 252.636719 150.425781 252.039062 149.21875 251.378906 C 148.007812 250.722656 146.832031 250.007812 145.691406 249.234375 C 144.550781 248.460938 143.453125 247.636719 142.394531 246.757812 C 141.332031 245.878906 140.316406 244.949219 139.347656 243.972656 C 138.378906 242.992188 137.460938 241.96875 136.589844 240.902344 C 135.71875 239.835938 134.902344 238.726562 134.140625 237.578125 C 133.378906 236.433594 132.675781 235.25 132.027344 234.035156 C 131.378906 232.820312 130.792969 231.578125 130.269531 230.304688 C 129.742188 229.035156 129.28125 227.738281 128.878906 226.421875 C 128.480469 225.105469 128.148438 223.773438 127.878906 222.421875 C 127.609375 221.074219 127.40625 219.714844 127.269531 218.347656 C 127.132812 216.980469 127.0625 215.609375 127.058594 214.234375 C 127.054688 212.859375 127.121094 211.488281 127.25 210.121094 C 127.382812 208.753906 127.578125 207.394531 127.84375 206.046875 C 128.105469 204.699219 128.4375 203.367188 128.832031 202.054688 C 129.222656 200.738281 129.683594 199.445312 130.203125 198.175781 C 130.722656 196.90625 131.304688 195.664062 131.945312 194.453125 C 132.589844 193.242188 133.289062 192.0625 134.046875 190.917969 C 134.800781 189.773438 135.613281 188.671875 136.480469 187.605469 C 137.34375 186.542969 138.261719 185.523438 139.226562 184.550781 C 140.191406 183.574219 141.203125 182.652344 142.257812 181.777344 C 143.316406 180.902344 144.410156 180.078125 145.550781 179.3125 C 146.6875 178.542969 147.859375 177.835938 149.0625 177.179688 C 150.269531 176.527344 151.507812 175.9375 152.773438 175.40625 C 154.039062 174.871094 155.324219 174.402344 156.636719 174 C 157.949219 173.59375 159.277344 173.253906 160.621094 172.976562 C 161.96875 172.699219 163.324219 172.492188 164.691406 172.347656 C 166.054688 172.203125 167.425781 172.128906 168.800781 172.117188 L 184.371094 172.152344 L 184.359375 169.394531 L 168.792969 169.359375 C 165.839844 169.347656 162.914062 169.625 160.019531 170.191406 C 157.121094 170.757812 154.3125 171.601562 151.585938 172.726562 C 148.859375 173.851562 146.273438 175.234375 143.820312 176.871094 C 141.371094 178.511719 139.109375 180.375 137.03125 182.464844 Z M 110.117188 214.199219 C 110.121094 216.125 110.21875 218.042969 110.410156 219.960938 C 110.601562 221.875 110.886719 223.777344 111.269531 225.667969 C 111.648438 227.554688 112.117188 229.421875 112.679688 231.265625 C 113.242188 233.109375 113.894531 234.921875 114.636719 236.699219 C 115.375 238.480469 116.199219 240.21875 117.113281 241.921875 C 118.023438 243.621094 119.015625 245.269531 120.085938 246.875 C 121.160156 248.476562 122.308594 250.023438 123.53125 251.511719 C 124.757812 253.003906 126.050781 254.429688 127.414062 255.796875 C 128.78125 257.160156 130.207031 258.453125 131.699219 259.679688 C 133.1875 260.902344 134.734375 262.050781 136.335938 263.125 C 137.941406 264.195312 139.589844 265.1875 141.289062 266.097656 C 142.992188 267.011719 144.730469 267.835938 146.511719 268.574219 C 148.289062 269.316406 150.101562 269.96875 151.945312 270.53125 C 153.789062 271.09375 155.65625 271.5625 157.542969 271.941406 C 159.433594 272.324219 161.335938 272.609375 163.25 272.800781 C 165.167969 272.992188 167.085938 273.089844 169.011719 273.09375 L 169.003906 270.339844 C 167.167969 270.335938 165.339844 270.242188 163.511719 270.058594 C 161.6875 269.875 159.875 269.601562 158.074219 269.238281 C 156.273438 268.878906 154.496094 268.429688 152.738281 267.894531 C 150.980469 267.355469 149.253906 266.734375 147.558594 266.03125 C 145.863281 265.324219 144.203125 264.539062 142.585938 263.667969 C 140.964844 262.800781 139.390625 261.855469 137.863281 260.835938 C 136.335938 259.8125 134.863281 258.71875 133.441406 257.550781 C 132.019531 256.382812 130.660156 255.148438 129.359375 253.851562 C 128.0625 252.550781 126.828125 251.191406 125.660156 249.769531 C 124.492188 248.347656 123.398438 246.875 122.375 245.347656 C 121.355469 243.820312 120.410156 242.246094 119.539062 240.625 C 118.671875 239.007812 117.886719 237.347656 117.179688 235.652344 C 116.476562 233.957031 115.855469 232.230469 115.316406 230.472656 C 114.78125 228.714844 114.332031 226.9375 113.972656 225.136719 C 113.609375 223.335938 113.335938 221.523438 113.152344 219.699219 C 112.96875 217.871094 112.875 216.042969 112.871094 214.207031 C 112.867188 212.371094 112.953125 210.542969 113.132812 208.71875 C 113.308594 206.890625 113.570312 205.078125 113.925781 203.28125 C 114.28125 201.480469 114.722656 199.707031 115.25 197.949219 C 115.777344 196.195312 116.394531 194.472656 117.089844 192.777344 C 117.789062 191.085938 118.570312 189.429688 119.429688 187.8125 C 120.292969 186.199219 121.230469 184.628906 122.246094 183.105469 C 123.261719 181.582031 124.351562 180.113281 125.511719 178.695312 C 126.671875 177.28125 127.902344 175.925781 129.195312 174.632812 C 130.492188 173.335938 131.847656 172.109375 133.261719 170.949219 C 134.675781 169.785156 136.148438 168.699219 137.671875 167.683594 C 139.195312 166.667969 140.761719 165.726562 142.378906 164.867188 C 143.996094 164.003906 145.652344 163.226562 147.34375 162.527344 C 149.039062 161.828125 150.761719 161.214844 152.515625 160.683594 C 154.269531 160.15625 156.046875 159.714844 157.847656 159.359375 C 159.644531 159.007812 161.457031 158.742188 163.28125 158.566406 C 165.109375 158.390625 166.9375 158.304688 168.773438 158.308594 L 184.324219 158.339844 L 184.316406 155.582031 L 168.765625 155.550781 C 166.839844 155.546875 164.917969 155.636719 163.003906 155.820312 C 161.089844 156.007812 159.1875 156.285156 157.300781 156.65625 C 155.414062 157.027344 153.550781 157.492188 151.707031 158.046875 C 149.867188 158.601562 148.058594 159.246094 146.28125 159.976562 C 144.507812 160.710938 142.769531 161.527344 141.074219 162.433594 C 139.378906 163.335938 137.730469 164.320312 136.132812 165.386719 C 134.535156 166.453125 132.992188 167.59375 131.507812 168.8125 C 130.023438 170.03125 128.601562 171.320312 127.242188 172.679688 C 125.882812 174.035156 124.597656 175.457031 123.378906 176.941406 C 122.160156 178.429688 121.019531 179.96875 119.953125 181.570312 C 118.886719 183.167969 117.902344 184.8125 116.996094 186.507812 C 116.09375 188.203125 115.277344 189.941406 114.542969 191.71875 C 113.808594 193.496094 113.164062 195.304688 112.609375 197.144531 C 112.054688 198.984375 111.59375 200.847656 111.222656 202.734375 C 110.847656 204.621094 110.570312 206.523438 110.386719 208.4375 C 110.203125 210.355469 110.113281 212.273438 110.117188 214.199219 Z M 110.117188 214.199219 " clip-rule="nonzero"/></clipPath><linearGradient x1="-4011.405801" gradientTransform="matrix(0.364125, 0.000760772, 0.000760772, 0.364125, 1568.251427, -1100.518224)" y1="3456.599645" x2="-3758.997805" gradientUnits="userSpaceOnUse" y2="3737.052044" id="id5"><stop stop-opacity="1" stop-color="rgb(63.09967%, 0%, 92.89856%)" offset="0"/><stop stop-opacity="1" stop-color="rgb(63.09967%, 0%, 92.89856%)" offset="0.25"/><stop stop-opacity="1" stop-color="rgb(63.09967%, 0%, 92.89856%)" offset="0.363197"/><stop stop-opacity="1" stop-color="rgb(63.09967%, 0%, 92.89856%)" offset="0.375"/><stop stop-opacity="1" stop-color="rgb(63.09967%, 0%, 92.89856%)" offset="0.4375"/><stop stop-opacity="1" stop-color="rgb(62.988281%, 0.038147%, 92.910767%)" offset="0.46875"/><stop stop-opacity="1" stop-color="rgb(61.730957%, 0.476074%, 93.052673%)" offset="0.472656"/><stop stop-opacity="1" stop-color="rgb(60.585022%, 0.875854%, 93.182373%)" offset="0.476562"/><stop stop-opacity="1" stop-color="rgb(59.437561%, 1.275635%, 93.310547%)" offset="0.480469"/><stop stop-opacity="1" stop-color="rgb(58.291626%, 1.675415%, 93.440247%)" offset="0.484375"/><stop stop-opacity="1" stop-color="rgb(57.145691%, 2.075195%, 93.56842%)" offset="0.488281"/><stop stop-opacity="1" stop-color="rgb(55.999756%, 2.474976%, 93.69812%)" offset="0.492187"/><stop stop-opacity="1" stop-color="rgb(54.852295%, 2.874756%, 93.826294%)" offset="0.496094"/><stop stop-opacity="1" stop-color="rgb(53.70636%, 3.274536%, 93.955994%)" offset="0.5"/><stop stop-opacity="1" stop-color="rgb(52.560425%, 3.674316%, 94.084167%)" offset="0.503906"/><stop stop-opacity="1" stop-color="rgb(51.41449%, 4.074097%, 94.213867%)" offset="0.507812"/><stop stop-opacity="1" stop-color="rgb(50.267029%, 4.472351%, 94.342041%)" offset="0.511719"/><stop stop-opacity="1" stop-color="rgb(49.121094%, 4.872131%, 94.471741%)" offset="0.515625"/><stop stop-opacity="1" stop-color="rgb(47.973633%, 5.271912%, 94.599915%)" offset="0.519531"/><stop stop-opacity="1" stop-color="rgb(46.827698%, 5.671692%, 94.729614%)" offset="0.523438"/><stop stop-opacity="1" stop-color="rgb(45.681763%, 6.071472%, 94.857788%)" offset="0.527344"/><stop stop-opacity="1" stop-color="rgb(44.535828%, 6.471252%, 94.987488%)" offset="0.53125"/><stop stop-opacity="1" stop-color="rgb(43.388367%, 6.871033%, 95.115662%)" offset="0.535156"/><stop stop-opacity="1" stop-color="rgb(42.242432%, 7.270813%, 95.245361%)" offset="0.539062"/><stop stop-opacity="1" stop-color="rgb(41.096497%, 7.670593%, 95.373535%)" offset="0.542969"/><stop stop-opacity="1" stop-color="rgb(39.950562%, 8.070374%, 95.503235%)" offset="0.546875"/><stop stop-opacity="1" stop-color="rgb(38.803101%, 8.470154%, 95.632935%)" offset="0.550781"/><stop stop-opacity="1" stop-color="rgb(37.657166%, 8.869934%, 95.762634%)" offset="0.554688"/><stop stop-opacity="1" stop-color="rgb(36.509705%, 9.269714%, 95.890808%)" offset="0.558594"/><stop stop-opacity="1" stop-color="rgb(35.36377%, 9.669495%, 96.020508%)" offset="0.5625"/><stop stop-opacity="1" stop-color="rgb(34.217834%, 10.069275%, 96.148682%)" offset="0.566406"/><stop stop-opacity="1" stop-color="rgb(33.071899%, 10.469055%, 96.278381%)" offset="0.570312"/><stop stop-opacity="1" stop-color="rgb(31.924438%, 10.86731%, 96.406555%)" offset="0.574219"/><stop stop-opacity="1" stop-color="rgb(30.778503%, 11.26709%, 96.536255%)" offset="0.578125"/><stop stop-opacity="1" stop-color="rgb(29.632568%, 11.66687%, 96.664429%)" offset="0.582031"/><stop stop-opacity="1" stop-color="rgb(28.486633%, 12.06665%, 96.794128%)" offset="0.585938"/><stop stop-opacity="1" stop-color="rgb(27.339172%, 12.466431%, 96.922302%)" offset="0.589844"/><stop stop-opacity="1" stop-color="rgb(26.193237%, 12.866211%, 97.052002%)" offset="0.59375"/><stop stop-opacity="1" stop-color="rgb(25.045776%, 13.265991%, 97.180176%)" offset="0.597656"/><stop stop-opacity="1" stop-color="rgb(23.899841%, 13.665771%, 97.309875%)" offset="0.601562"/><stop stop-opacity="1" stop-color="rgb(22.753906%, 14.065552%, 97.438049%)" offset="0.605469"/><stop stop-opacity="1" stop-color="rgb(21.607971%, 14.465332%, 97.567749%)" offset="0.609375"/><stop stop-opacity="1" stop-color="rgb(20.46051%, 14.865112%, 97.695923%)" offset="0.613281"/><stop stop-opacity="1" stop-color="rgb(19.314575%, 15.264893%, 97.825623%)" offset="0.617188"/><stop stop-opacity="1" stop-color="rgb(18.16864%, 15.664673%, 97.953796%)" offset="0.621094"/><stop stop-opacity="1" stop-color="rgb(17.022705%, 16.064453%, 98.083496%)" offset="0.625"/><stop stop-opacity="1" stop-color="rgb(15.875244%, 16.464233%, 98.21167%)" offset="0.628906"/><stop stop-opacity="1" stop-color="rgb(14.729309%, 16.864014%, 98.34137%)" offset="0.632812"/><stop stop-opacity="1" stop-color="rgb(13.581848%, 17.263794%, 98.469543%)" offset="0.636719"/><stop stop-opacity="1" stop-color="rgb(12.435913%, 17.663574%, 98.599243%)" offset="0.640625"/><stop stop-opacity="1" stop-color="rgb(11.289978%, 18.061829%, 98.727417%)" offset="0.644531"/><stop stop-opacity="1" stop-color="rgb(10.144043%, 18.461609%, 98.857117%)" offset="0.648438"/><stop stop-opacity="1" stop-color="rgb(8.996582%, 18.861389%, 98.985291%)" offset="0.652344"/><stop stop-opacity="1" stop-color="rgb(7.850647%, 19.261169%, 99.11499%)" offset="0.65625"/><stop stop-opacity="1" stop-color="rgb(6.704712%, 19.66095%, 99.24469%)" offset="0.660156"/><stop stop-opacity="1" stop-color="rgb(5.558777%, 20.06073%, 99.37439%)" offset="0.664062"/><stop stop-opacity="1" stop-color="rgb(4.411316%, 20.46051%, 99.502563%)" offset="0.667969"/><stop stop-opacity="1" stop-color="rgb(3.265381%, 20.860291%, 99.632263%)" offset="0.671875"/><stop stop-opacity="1" stop-color="rgb(2.11792%, 21.260071%, 99.760437%)" offset="0.675781"/><stop stop-opacity="1" stop-color="rgb(0.971985%, 21.659851%, 99.890137%)" offset="0.679688"/><stop stop-opacity="1" stop-color="rgb(0.485229%, 21.829224%, 99.945068%)" offset="0.683594"/><stop stop-opacity="1" stop-color="rgb(0%, 21.998596%, 100%)" offset="0.6875"/><stop stop-opacity="1" stop-color="rgb(0%, 21.998596%, 100%)" offset="0.75"/><stop stop-opacity="1" stop-color="rgb(0%, 21.998596%, 100%)" offset="1"/></linearGradient><clipPath id="id6"><path d="M 224 155 L 287 155 L 287 200 L 224 200 Z M 224 155 " clip-rule="nonzero"/></clipPath><clipPath id="id7"><path d="M 247.746094 223.09375 L 202.292969 177.636719 L 245.273438 134.65625 L 290.726562 180.109375 Z M 247.746094 223.09375 " clip-rule="nonzero"/></clipPath><clipPath id="id8"><path d="M 247.746094 223.09375 L 202.292969 177.636719 L 245.273438 134.65625 L 290.726562 180.109375 Z M 247.746094 223.09375 " clip-rule="nonzero"/></clipPath><clipPath id="id9"><path d="M 257.75 183.179688 L 224.460938 183.214844 L 224.460938 185.980469 L 257.75 185.941406 Z M 224.453125 158.308594 L 247.816406 158.285156 L 247.820312 155.519531 L 224.453125 155.542969 Z M 224.46875 165.214844 L 263.933594 165.175781 L 263.933594 162.410156 L 224.464844 162.449219 Z M 224.464844 197.050781 L 224.464844 199.8125 L 269.105469 199.765625 L 269.117188 197.011719 Z M 224.453125 192.90625 L 277.921875 192.847656 L 277.921875 190.085938 L 224.460938 190.132812 Z M 224.449219 172.152344 L 275.796875 172.089844 L 275.800781 169.328125 L 224.457031 169.378906 Z M 224.460938 179.058594 L 286.847656 178.996094 L 286.851562 176.230469 L 224.460938 176.296875 Z M 224.460938 179.058594 " clip-rule="nonzero"/></clipPath><linearGradient x1="-3630.199359" gradientTransform="matrix(0.364783, -0.000375023, -0.000375023, 0.364783, 1549.865077, -996.651156)" y1="3215.53" x2="-3459.00154" gradientUnits="userSpaceOnUse" y2="3215.53" id="id10"><stop stop-opacity="1" stop-color="rgb(54.899597%, 0%, 92.89856%)" offset="0"/><stop stop-opacity="1" stop-color="rgb(55.038452%, 0.344849%, 92.875671%)" offset="0.00390625"/><stop stop-opacity="1" stop-color="rgb(55.177307%, 0.691223%, 92.854309%)" offset="0.0078125"/><stop stop-opacity="1" stop-color="rgb(55.317688%, 1.042175%, 92.831421%)" offset="0.0117188"/><stop stop-opacity="1" stop-color="rgb(55.459595%, 1.393127%, 92.808533%)" offset="0.015625"/><stop stop-opacity="1" stop-color="rgb(55.599976%, 1.74408%, 92.785645%)" offset="0.0195313"/><stop stop-opacity="1" stop-color="rgb(55.741882%, 2.095032%, 92.764282%)" offset="0.0234375"/><stop stop-opacity="1" stop-color="rgb(55.882263%, 2.445984%, 92.741394%)" offset="0.0273438"/><stop stop-opacity="1" stop-color="rgb(56.02417%, 2.796936%, 92.718506%)" offset="0.03125"/><stop stop-opacity="1" stop-color="rgb(56.164551%, 3.147888%, 92.695618%)" offset="0.0351563"/><stop stop-opacity="1" stop-color="rgb(56.306458%, 3.49884%, 92.672729%)" offset="0.0390625"/><stop stop-opacity="1" stop-color="rgb(56.446838%, 3.849792%, 92.649841%)" offset="0.0429688"/><stop stop-opacity="1" stop-color="rgb(56.588745%, 4.200745%, 92.628479%)" offset="0.046875"/><stop stop-opacity="1" stop-color="rgb(56.729126%, 4.551697%, 92.605591%)" offset="0.0507812"/><stop stop-opacity="1" stop-color="rgb(56.871033%, 4.902649%, 92.582703%)" offset="0.0546875"/><stop stop-opacity="1" stop-color="rgb(57.011414%, 5.253601%, 92.559814%)" offset="0.0585938"/><stop stop-opacity="1" stop-color="rgb(57.15332%, 5.604553%, 92.536926%)" offset="0.0625"/><stop stop-opacity="1" stop-color="rgb(57.293701%, 5.955505%, 92.514038%)" offset="0.0664062"/><stop stop-opacity="1" stop-color="rgb(57.435608%, 6.306458%, 92.49115%)" offset="0.0703125"/><stop stop-opacity="1" stop-color="rgb(57.575989%, 6.65741%, 92.468262%)" offset="0.0742188"/><stop stop-opacity="1" stop-color="rgb(57.71637%, 7.008362%, 92.446899%)" offset="0.078125"/><stop stop-opacity="1" stop-color="rgb(57.85675%, 7.359314%, 92.424011%)" offset="0.0820313"/><stop stop-opacity="1" stop-color="rgb(57.998657%, 7.710266%, 92.401123%)" offset="0.0859375"/><stop stop-opacity="1" stop-color="rgb(58.139038%, 8.061218%, 92.378235%)" offset="0.0898438"/><stop stop-opacity="1" stop-color="rgb(58.280945%, 8.41217%, 92.355347%)" offset="0.09375"/><stop stop-opacity="1" stop-color="rgb(58.421326%, 8.763123%, 92.332458%)" offset="0.0976563"/><stop stop-opacity="1" stop-color="rgb(58.563232%, 9.114075%, 92.311096%)" offset="0.101563"/><stop stop-opacity="1" stop-color="rgb(58.703613%, 9.465027%, 92.288208%)" offset="0.105469"/><stop stop-opacity="1" stop-color="rgb(58.84552%, 9.815979%, 92.26532%)" offset="0.109375"/><stop stop-opacity="1" stop-color="rgb(58.985901%, 10.166931%, 92.242432%)" offset="0.113281"/><stop stop-opacity="1" stop-color="rgb(59.127808%, 10.517883%, 92.219543%)" offset="0.117188"/><stop stop-opacity="1" stop-color="rgb(59.268188%, 10.868835%, 92.196655%)" offset="0.121094"/><stop stop-opacity="1" stop-color="rgb(59.410095%, 11.219788%, 92.173767%)" offset="0.125"/><stop stop-opacity="1" stop-color="rgb(59.550476%, 11.57074%, 92.150879%)" offset="0.128906"/><stop stop-opacity="1" stop-color="rgb(59.692383%, 11.921692%, 92.129517%)" offset="0.132812"/><stop stop-opacity="1" stop-color="rgb(59.832764%, 12.272644%, 92.106628%)" offset="0.136719"/><stop stop-opacity="1" stop-color="rgb(59.97467%, 12.625122%, 92.08374%)" offset="0.140625"/><stop stop-opacity="1" stop-color="rgb(60.115051%, 12.976074%, 92.060852%)" offset="0.144531"/><stop stop-opacity="1" stop-color="rgb(60.256958%, 13.327026%, 92.037964%)" offset="0.148438"/><stop stop-opacity="1" stop-color="rgb(60.397339%, 13.677979%, 92.015076%)" offset="0.152344"/><stop stop-opacity="1" stop-color="rgb(60.539246%, 14.028931%, 91.993713%)" offset="0.15625"/><stop stop-opacity="1" stop-color="rgb(60.679626%, 14.379883%, 91.970825%)" offset="0.160156"/><stop stop-opacity="1" stop-color="rgb(60.821533%, 14.730835%, 91.947937%)" offset="0.164062"/><stop stop-opacity="1" stop-color="rgb(60.961914%, 15.081787%, 91.925049%)" offset="0.167969"/><stop stop-opacity="1" stop-color="rgb(61.103821%, 15.432739%, 91.902161%)" offset="0.171875"/><stop stop-opacity="1" stop-color="rgb(61.244202%, 15.783691%, 91.879272%)" offset="0.175781"/><stop stop-opacity="1" stop-color="rgb(61.386108%, 16.134644%, 91.856384%)" offset="0.179688"/><stop stop-opacity="1" stop-color="rgb(61.526489%, 16.485596%, 91.833496%)" offset="0.183594"/><stop stop-opacity="1" stop-color="rgb(61.668396%, 16.836548%, 91.812134%)" offset="0.1875"/><stop stop-opacity="1" stop-color="rgb(61.808777%, 17.1875%, 91.789246%)" offset="0.191406"/><stop stop-opacity="1" stop-color="rgb(61.950684%, 17.538452%, 91.766357%)" offset="0.195312"/><stop stop-opacity="1" stop-color="rgb(62.091064%, 17.889404%, 91.743469%)" offset="0.199219"/><stop stop-opacity="1" stop-color="rgb(62.231445%, 18.240356%, 91.720581%)" offset="0.203125"/><stop stop-opacity="1" stop-color="rgb(62.371826%, 18.591309%, 91.697693%)" offset="0.207031"/><stop stop-opacity="1" stop-color="rgb(62.513733%, 18.942261%, 91.676331%)" offset="0.210938"/><stop stop-opacity="1" stop-color="rgb(62.654114%, 19.293213%, 91.653442%)" offset="0.214844"/><stop stop-opacity="1" stop-color="rgb(62.796021%, 19.644165%, 91.630554%)" offset="0.21875"/><stop stop-opacity="1" stop-color="rgb(62.936401%, 19.995117%, 91.607666%)" offset="0.222656"/><stop stop-opacity="1" stop-color="rgb(63.078308%, 20.346069%, 91.584778%)" offset="0.226563"/><stop stop-opacity="1" stop-color="rgb(63.218689%, 20.697021%, 91.56189%)" offset="0.230469"/><stop stop-opacity="1" stop-color="rgb(63.360596%, 21.047974%, 91.539001%)" offset="0.234375"/><stop stop-opacity="1" stop-color="rgb(63.500977%, 21.398926%, 91.516113%)" offset="0.238281"/><stop stop-opacity="1" stop-color="rgb(63.642883%, 21.749878%, 91.494751%)" offset="0.242188"/><stop stop-opacity="1" stop-color="rgb(63.783264%, 22.10083%, 91.471863%)" offset="0.246094"/><stop stop-opacity="1" stop-color="rgb(63.925171%, 22.451782%, 91.448975%)" offset="0.25"/><stop stop-opacity="1" stop-color="rgb(64.065552%, 22.802734%, 91.426086%)" offset="0.253906"/><stop stop-opacity="1" stop-color="rgb(64.207458%, 23.153687%, 91.403198%)" offset="0.257812"/><stop stop-opacity="1" stop-color="rgb(64.347839%, 23.504639%, 91.38031%)" offset="0.261719"/><stop stop-opacity="1" stop-color="rgb(64.489746%, 23.855591%, 91.358948%)" offset="0.265625"/><stop stop-opacity="1" stop-color="rgb(64.630127%, 24.206543%, 91.33606%)" offset="0.269531"/><stop stop-opacity="1" stop-color="rgb(64.772034%, 24.557495%, 91.313171%)" offset="0.273438"/><stop stop-opacity="1" stop-color="rgb(64.912415%, 24.908447%, 91.290283%)" offset="0.277344"/><stop stop-opacity="1" stop-color="rgb(65.054321%, 25.259399%, 91.267395%)" offset="0.28125"/><stop stop-opacity="1" stop-color="rgb(65.194702%, 25.610352%, 91.244507%)" offset="0.285156"/><stop stop-opacity="1" stop-color="rgb(65.336609%, 25.961304%, 91.221619%)" offset="0.289063"/><stop stop-opacity="1" stop-color="rgb(65.47699%, 26.312256%, 91.19873%)" offset="0.292969"/><stop stop-opacity="1" stop-color="rgb(65.618896%, 26.663208%, 91.177368%)" offset="0.296875"/><stop stop-opacity="1" stop-color="rgb(65.759277%, 27.01416%, 91.15448%)" offset="0.300781"/><stop stop-opacity="1" stop-color="rgb(65.901184%, 27.365112%, 91.131592%)" offset="0.304688"/><stop stop-opacity="1" stop-color="rgb(66.041565%, 27.716064%, 91.108704%)" offset="0.308594"/><stop stop-opacity="1" stop-color="rgb(66.183472%, 28.067017%, 91.085815%)" offset="0.3125"/><stop stop-opacity="1" stop-color="rgb(66.323853%, 28.417969%, 91.062927%)" offset="0.316406"/><stop stop-opacity="1" stop-color="rgb(66.465759%, 28.768921%, 91.041565%)" offset="0.320313"/><stop stop-opacity="1" stop-color="rgb(66.60614%, 29.119873%, 91.018677%)" offset="0.324219"/><stop stop-opacity="1" stop-color="rgb(66.746521%, 29.470825%, 90.995789%)" offset="0.328125"/><stop stop-opacity="1" stop-color="rgb(66.886902%, 29.821777%, 90.9729%)" offset="0.332031"/><stop stop-opacity="1" stop-color="rgb(67.028809%, 30.174255%, 90.950012%)" offset="0.335938"/><stop stop-opacity="1" stop-color="rgb(67.169189%, 30.525208%, 90.927124%)" offset="0.339844"/><stop stop-opacity="1" stop-color="rgb(67.311096%, 30.87616%, 90.905762%)" offset="0.34375"/><stop stop-opacity="1" stop-color="rgb(67.451477%, 31.227112%, 90.882874%)" offset="0.347656"/><stop stop-opacity="1" stop-color="rgb(67.593384%, 31.578064%, 90.859985%)" offset="0.351563"/><stop stop-opacity="1" stop-color="rgb(67.733765%, 31.929016%, 90.837097%)" offset="0.355469"/><stop stop-opacity="1" stop-color="rgb(67.875671%, 32.279968%, 90.814209%)" offset="0.359375"/><stop stop-opacity="1" stop-color="rgb(68.016052%, 32.63092%, 90.791321%)" offset="0.363281"/><stop stop-opacity="1" stop-color="rgb(68.157959%, 32.981873%, 90.768433%)" offset="0.367188"/><stop stop-opacity="1" stop-color="rgb(68.29834%, 33.332825%, 90.745544%)" offset="0.371094"/><stop stop-opacity="1" stop-color="rgb(68.440247%, 33.683777%, 90.724182%)" offset="0.375"/><stop stop-opacity="1" stop-color="rgb(68.580627%, 34.034729%, 90.701294%)" offset="0.378906"/><stop stop-opacity="1" stop-color="rgb(68.722534%, 34.385681%, 90.678406%)" offset="0.382813"/><stop stop-opacity="1" stop-color="rgb(68.862915%, 34.736633%, 90.655518%)" offset="0.386719"/><stop stop-opacity="1" stop-color="rgb(69.004822%, 35.087585%, 90.632629%)" offset="0.390625"/><stop stop-opacity="1" stop-color="rgb(69.145203%, 35.438538%, 90.609741%)" offset="0.394531"/><stop stop-opacity="1" stop-color="rgb(69.287109%, 35.78949%, 90.588379%)" offset="0.398438"/><stop stop-opacity="1" stop-color="rgb(69.42749%, 36.140442%, 90.565491%)" offset="0.402344"/><stop stop-opacity="1" stop-color="rgb(69.569397%, 36.491394%, 90.542603%)" offset="0.40625"/><stop stop-opacity="1" stop-color="rgb(69.709778%, 36.842346%, 90.519714%)" offset="0.410156"/><stop stop-opacity="1" stop-color="rgb(69.851685%, 37.193298%, 90.496826%)" offset="0.414063"/><stop stop-opacity="1" stop-color="rgb(69.992065%, 37.54425%, 90.473938%)" offset="0.417969"/><stop stop-opacity="1" stop-color="rgb(70.133972%, 37.895203%, 90.45105%)" offset="0.421875"/><stop stop-opacity="1" stop-color="rgb(70.274353%, 38.246155%, 90.428162%)" offset="0.425781"/><stop stop-opacity="1" stop-color="rgb(70.41626%, 38.597107%, 90.406799%)" offset="0.429688"/><stop stop-opacity="1" stop-color="rgb(70.556641%, 38.948059%, 90.383911%)" offset="0.433594"/><stop stop-opacity="1" stop-color="rgb(70.698547%, 39.299011%, 90.361023%)" offset="0.4375"/><stop stop-opacity="1" stop-color="rgb(70.838928%, 39.649963%, 90.338135%)" offset="0.441406"/><stop stop-opacity="1" stop-color="rgb(70.980835%, 40.000916%, 90.315247%)" offset="0.445313"/><stop stop-opacity="1" stop-color="rgb(71.121216%, 40.351868%, 90.292358%)" offset="0.449219"/><stop stop-opacity="1" stop-color="rgb(71.261597%, 40.70282%, 90.270996%)" offset="0.453125"/><stop stop-opacity="1" stop-color="rgb(71.401978%, 41.053772%, 90.248108%)" offset="0.457031"/><stop stop-opacity="1" stop-color="rgb(71.543884%, 41.404724%, 90.22522%)" offset="0.460938"/><stop stop-opacity="1" stop-color="rgb(71.684265%, 41.755676%, 90.202332%)" offset="0.464844"/><stop stop-opacity="1" stop-color="rgb(71.826172%, 42.106628%, 90.179443%)" offset="0.46875"/><stop stop-opacity="1" stop-color="rgb(71.966553%, 42.457581%, 90.156555%)" offset="0.472656"/><stop stop-opacity="1" stop-color="rgb(72.108459%, 42.808533%, 90.133667%)" offset="0.476562"/><stop stop-opacity="1" stop-color="rgb(72.24884%, 43.159485%, 90.110779%)" offset="0.480469"/><stop stop-opacity="1" stop-color="rgb(72.390747%, 43.510437%, 90.089417%)" offset="0.484375"/><stop stop-opacity="1" stop-color="rgb(72.531128%, 43.861389%, 90.066528%)" offset="0.488281"/><stop stop-opacity="1" stop-color="rgb(72.673035%, 44.212341%, 90.04364%)" offset="0.492188"/><stop stop-opacity="1" stop-color="rgb(72.813416%, 44.563293%, 90.020752%)" offset="0.496094"/><stop stop-opacity="1" stop-color="rgb(72.955322%, 44.914246%, 89.997864%)" offset="0.5"/><stop stop-opacity="1" stop-color="rgb(73.095703%, 45.265198%, 89.974976%)" offset="0.503906"/><stop stop-opacity="1" stop-color="rgb(73.23761%, 45.61615%, 89.953613%)" offset="0.507812"/><stop stop-opacity="1" stop-color="rgb(73.377991%, 45.967102%, 89.930725%)" offset="0.511719"/><stop stop-opacity="1" stop-color="rgb(73.519897%, 46.318054%, 89.907837%)" offset="0.515625"/><stop stop-opacity="1" stop-color="rgb(73.660278%, 46.669006%, 89.884949%)" offset="0.519531"/><stop stop-opacity="1" stop-color="rgb(73.802185%, 47.019958%, 89.862061%)" offset="0.523437"/><stop stop-opacity="1" stop-color="rgb(73.942566%, 47.370911%, 89.839172%)" offset="0.527344"/><stop stop-opacity="1" stop-color="rgb(74.084473%, 47.721863%, 89.816284%)" offset="0.53125"/><stop stop-opacity="1" stop-color="rgb(74.224854%, 48.072815%, 89.793396%)" offset="0.535156"/><stop stop-opacity="1" stop-color="rgb(74.36676%, 48.425293%, 89.772034%)" offset="0.539062"/><stop stop-opacity="1" stop-color="rgb(74.507141%, 48.776245%, 89.749146%)" offset="0.542969"/><stop stop-opacity="1" stop-color="rgb(74.649048%, 49.127197%, 89.726257%)" offset="0.546875"/><stop stop-opacity="1" stop-color="rgb(74.789429%, 49.478149%, 89.703369%)" offset="0.550781"/><stop stop-opacity="1" stop-color="rgb(74.931335%, 49.829102%, 89.680481%)" offset="0.554688"/><stop stop-opacity="1" stop-color="rgb(75.071716%, 50.180054%, 89.657593%)" offset="0.558594"/><stop stop-opacity="1" stop-color="rgb(75.213623%, 50.531006%, 89.63623%)" offset="0.5625"/><stop stop-opacity="1" stop-color="rgb(75.354004%, 50.881958%, 89.613342%)" offset="0.566406"/><stop stop-opacity="1" stop-color="rgb(75.495911%, 51.23291%, 89.590454%)" offset="0.570312"/><stop stop-opacity="1" stop-color="rgb(75.636292%, 51.583862%, 89.567566%)" offset="0.574219"/><stop stop-opacity="1" stop-color="rgb(75.776672%, 51.934814%, 89.544678%)" offset="0.578125"/><stop stop-opacity="1" stop-color="rgb(75.917053%, 52.285767%, 89.52179%)" offset="0.582031"/><stop stop-opacity="1" stop-color="rgb(76.05896%, 52.636719%, 89.498901%)" offset="0.585938"/><stop stop-opacity="1" stop-color="rgb(76.199341%, 52.987671%, 89.476013%)" offset="0.589844"/><stop stop-opacity="1" stop-color="rgb(76.341248%, 53.338623%, 89.454651%)" offset="0.59375"/><stop stop-opacity="1" stop-color="rgb(76.481628%, 53.689575%, 89.431763%)" offset="0.597656"/><stop stop-opacity="1" stop-color="rgb(76.623535%, 54.040527%, 89.408875%)" offset="0.601562"/><stop stop-opacity="1" stop-color="rgb(76.763916%, 54.391479%, 89.385986%)" offset="0.605469"/><stop stop-opacity="1" stop-color="rgb(76.905823%, 54.742432%, 89.363098%)" offset="0.609375"/><stop stop-opacity="1" stop-color="rgb(77.046204%, 55.093384%, 89.34021%)" offset="0.613281"/><stop stop-opacity="1" stop-color="rgb(77.18811%, 55.444336%, 89.318848%)" offset="0.617188"/><stop stop-opacity="1" stop-color="rgb(77.328491%, 55.795288%, 89.295959%)" offset="0.621094"/><stop stop-opacity="1" stop-color="rgb(77.470398%, 56.14624%, 89.273071%)" offset="0.625"/><stop stop-opacity="1" stop-color="rgb(77.610779%, 56.497192%, 89.250183%)" offset="0.628906"/><stop stop-opacity="1" stop-color="rgb(77.752686%, 56.848145%, 89.227295%)" offset="0.632813"/><stop stop-opacity="1" stop-color="rgb(77.893066%, 57.199097%, 89.204407%)" offset="0.636719"/><stop stop-opacity="1" stop-color="rgb(78.034973%, 57.550049%, 89.181519%)" offset="0.640625"/><stop stop-opacity="1" stop-color="rgb(78.175354%, 57.901001%, 89.15863%)" offset="0.644531"/><stop stop-opacity="1" stop-color="rgb(78.317261%, 58.251953%, 89.137268%)" offset="0.648438"/><stop stop-opacity="1" stop-color="rgb(78.457642%, 58.602905%, 89.11438%)" offset="0.652344"/><stop stop-opacity="1" stop-color="rgb(78.599548%, 58.953857%, 89.091492%)" offset="0.65625"/><stop stop-opacity="1" stop-color="rgb(78.739929%, 59.30481%, 89.068604%)" offset="0.660156"/><stop stop-opacity="1" stop-color="rgb(78.881836%, 59.655762%, 89.045715%)" offset="0.664063"/><stop stop-opacity="1" stop-color="rgb(79.022217%, 60.006714%, 89.022827%)" offset="0.667969"/><stop stop-opacity="1" stop-color="rgb(79.164124%, 60.357666%, 89.001465%)" offset="0.671875"/><stop stop-opacity="1" stop-color="rgb(79.304504%, 60.708618%, 88.978577%)" offset="0.675781"/><stop stop-opacity="1" stop-color="rgb(79.446411%, 61.05957%, 88.955688%)" offset="0.679688"/><stop stop-opacity="1" stop-color="rgb(79.586792%, 61.410522%, 88.9328%)" offset="0.683594"/><stop stop-opacity="1" stop-color="rgb(79.728699%, 61.761475%, 88.909912%)" offset="0.6875"/><stop stop-opacity="1" stop-color="rgb(79.86908%, 62.112427%, 88.887024%)" offset="0.691406"/><stop stop-opacity="1" stop-color="rgb(80.010986%, 62.463379%, 88.864136%)" offset="0.695312"/><stop stop-opacity="1" stop-color="rgb(80.151367%, 62.814331%, 88.841248%)" offset="0.699219"/><stop stop-opacity="1" stop-color="rgb(80.291748%, 63.165283%, 88.819885%)" offset="0.703125"/><stop stop-opacity="1" stop-color="rgb(80.432129%, 63.516235%, 88.796997%)" offset="0.707031"/><stop stop-opacity="1" stop-color="rgb(80.574036%, 63.867188%, 88.774109%)" offset="0.710938"/><stop stop-opacity="1" stop-color="rgb(80.714417%, 64.21814%, 88.751221%)" offset="0.714844"/><stop stop-opacity="1" stop-color="rgb(80.856323%, 64.569092%, 88.728333%)" offset="0.71875"/><stop stop-opacity="1" stop-color="rgb(80.996704%, 64.920044%, 88.705444%)" offset="0.722656"/><stop stop-opacity="1" stop-color="rgb(81.138611%, 65.270996%, 88.684082%)" offset="0.726562"/><stop stop-opacity="1" stop-color="rgb(81.278992%, 65.621948%, 88.661194%)" offset="0.730469"/><stop stop-opacity="1" stop-color="rgb(81.420898%, 65.974426%, 88.638306%)" offset="0.734375"/><stop stop-opacity="1" stop-color="rgb(81.561279%, 66.325378%, 88.615417%)" offset="0.738281"/><stop stop-opacity="1" stop-color="rgb(81.703186%, 66.676331%, 88.592529%)" offset="0.742188"/><stop stop-opacity="1" stop-color="rgb(81.843567%, 67.027283%, 88.569641%)" offset="0.746094"/><stop stop-opacity="1" stop-color="rgb(81.985474%, 67.378235%, 88.546753%)" offset="0.75"/><stop stop-opacity="1" stop-color="rgb(82.125854%, 67.729187%, 88.523865%)" offset="0.753906"/><stop stop-opacity="1" stop-color="rgb(82.267761%, 68.080139%, 88.502502%)" offset="0.757813"/><stop stop-opacity="1" stop-color="rgb(82.408142%, 68.431091%, 88.479614%)" offset="0.761719"/><stop stop-opacity="1" stop-color="rgb(82.550049%, 68.782043%, 88.456726%)" offset="0.765625"/><stop stop-opacity="1" stop-color="rgb(82.69043%, 69.132996%, 88.433838%)" offset="0.769531"/><stop stop-opacity="1" stop-color="rgb(82.832336%, 69.483948%, 88.41095%)" offset="0.773438"/><stop stop-opacity="1" stop-color="rgb(82.972717%, 69.8349%, 88.388062%)" offset="0.777344"/><stop stop-opacity="1" stop-color="rgb(83.114624%, 70.185852%, 88.366699%)" offset="0.78125"/><stop stop-opacity="1" stop-color="rgb(83.255005%, 70.536804%, 88.343811%)" offset="0.785156"/><stop stop-opacity="1" stop-color="rgb(83.396912%, 70.887756%, 88.320923%)" offset="0.789063"/><stop stop-opacity="1" stop-color="rgb(83.537292%, 71.238708%, 88.298035%)" offset="0.792969"/><stop stop-opacity="1" stop-color="rgb(83.679199%, 71.589661%, 88.275146%)" offset="0.796875"/><stop stop-opacity="1" stop-color="rgb(83.81958%, 71.940613%, 88.252258%)" offset="0.800781"/><stop stop-opacity="1" stop-color="rgb(83.961487%, 72.291565%, 88.22937%)" offset="0.804688"/><stop stop-opacity="1" stop-color="rgb(84.101868%, 72.642517%, 88.206482%)" offset="0.808594"/><stop stop-opacity="1" stop-color="rgb(84.243774%, 72.993469%, 88.18512%)" offset="0.8125"/><stop stop-opacity="1" stop-color="rgb(84.384155%, 73.344421%, 88.162231%)" offset="0.816406"/><stop stop-opacity="1" stop-color="rgb(84.526062%, 73.695374%, 88.139343%)" offset="0.820312"/><stop stop-opacity="1" stop-color="rgb(84.666443%, 74.046326%, 88.116455%)" offset="0.824219"/><stop stop-opacity="1" stop-color="rgb(84.806824%, 74.397278%, 88.093567%)" offset="0.828125"/><stop stop-opacity="1" stop-color="rgb(84.947205%, 74.74823%, 88.070679%)" offset="0.832031"/><stop stop-opacity="1" stop-color="rgb(85.089111%, 75.099182%, 88.049316%)" offset="0.835938"/><stop stop-opacity="1" stop-color="rgb(85.229492%, 75.450134%, 88.026428%)" offset="0.839844"/><stop stop-opacity="1" stop-color="rgb(85.371399%, 75.801086%, 88.00354%)" offset="0.84375"/><stop stop-opacity="1" stop-color="rgb(85.51178%, 76.152039%, 87.980652%)" offset="0.847656"/><stop stop-opacity="1" stop-color="rgb(85.653687%, 76.502991%, 87.957764%)" offset="0.851562"/><stop stop-opacity="1" stop-color="rgb(85.794067%, 76.853943%, 87.934875%)" offset="0.855469"/><stop stop-opacity="1" stop-color="rgb(85.935974%, 77.204895%, 87.911987%)" offset="0.859375"/><stop stop-opacity="1" stop-color="rgb(86.076355%, 77.555847%, 87.889099%)" offset="0.863281"/><stop stop-opacity="1" stop-color="rgb(86.218262%, 77.906799%, 87.867737%)" offset="0.867188"/><stop stop-opacity="1" stop-color="rgb(86.358643%, 78.257751%, 87.844849%)" offset="0.871094"/><stop stop-opacity="1" stop-color="rgb(86.500549%, 78.608704%, 87.82196%)" offset="0.875"/><stop stop-opacity="1" stop-color="rgb(86.64093%, 78.959656%, 87.799072%)" offset="0.878906"/><stop stop-opacity="1" stop-color="rgb(86.782837%, 79.310608%, 87.776184%)" offset="0.882812"/><stop stop-opacity="1" stop-color="rgb(86.923218%, 79.66156%, 87.753296%)" offset="0.886719"/><stop stop-opacity="1" stop-color="rgb(87.065125%, 80.012512%, 87.731934%)" offset="0.890625"/><stop stop-opacity="1" stop-color="rgb(87.205505%, 80.363464%, 87.709045%)" offset="0.894531"/><stop stop-opacity="1" stop-color="rgb(87.347412%, 80.714417%, 87.686157%)" offset="0.898438"/><stop stop-opacity="1" stop-color="rgb(87.487793%, 81.065369%, 87.663269%)" offset="0.902344"/><stop stop-opacity="1" stop-color="rgb(87.6297%, 81.416321%, 87.640381%)" offset="0.90625"/><stop stop-opacity="1" stop-color="rgb(87.770081%, 81.767273%, 87.617493%)" offset="0.910156"/><stop stop-opacity="1" stop-color="rgb(87.911987%, 82.118225%, 87.594604%)" offset="0.914063"/><stop stop-opacity="1" stop-color="rgb(88.052368%, 82.469177%, 87.571716%)" offset="0.917969"/><stop stop-opacity="1" stop-color="rgb(88.194275%, 82.820129%, 87.550354%)" offset="0.921875"/><stop stop-opacity="1" stop-color="rgb(88.334656%, 83.171082%, 87.527466%)" offset="0.925781"/><stop stop-opacity="1" stop-color="rgb(88.476562%, 83.522034%, 87.504578%)" offset="0.929688"/><stop stop-opacity="1" stop-color="rgb(88.616943%, 83.872986%, 87.481689%)" offset="0.933594"/><stop stop-opacity="1" stop-color="rgb(88.75885%, 84.225464%, 87.458801%)" offset="0.9375"/><stop stop-opacity="1" stop-color="rgb(88.899231%, 84.576416%, 87.435913%)" offset="0.941406"/><stop stop-opacity="1" stop-color="rgb(89.041138%, 84.927368%, 87.414551%)" offset="0.945312"/><stop stop-opacity="1" stop-color="rgb(89.181519%, 85.27832%, 87.391663%)" offset="0.949219"/><stop stop-opacity="1" stop-color="rgb(89.321899%, 85.629272%, 87.368774%)" offset="0.953125"/><stop stop-opacity="1" stop-color="rgb(89.46228%, 85.980225%, 87.345886%)" offset="0.957031"/><stop stop-opacity="1" stop-color="rgb(89.604187%, 86.331177%, 87.322998%)" offset="0.960937"/><stop stop-opacity="1" stop-color="rgb(89.744568%, 86.682129%, 87.30011%)" offset="0.964844"/><stop stop-opacity="1" stop-color="rgb(89.886475%, 87.033081%, 87.277222%)" offset="0.96875"/><stop stop-opacity="1" stop-color="rgb(90.026855%, 87.384033%, 87.254333%)" offset="0.972656"/><stop stop-opacity="1" stop-color="rgb(90.168762%, 87.734985%, 87.232971%)" offset="0.976562"/><stop stop-opacity="1" stop-color="rgb(90.309143%, 88.085938%, 87.210083%)" offset="0.980469"/><stop stop-opacity="1" stop-color="rgb(90.45105%, 88.43689%, 87.187195%)" offset="0.984375"/><stop stop-opacity="1" stop-color="rgb(90.591431%, 88.787842%, 87.164307%)" offset="0.988281"/><stop stop-opacity="1" stop-color="rgb(90.733337%, 89.138794%, 87.141418%)" offset="0.992188"/><stop stop-opacity="1" stop-color="rgb(90.866089%, 89.468384%, 87.120056%)" offset="0.996094"/><stop stop-opacity="1" stop-color="rgb(90.99884%, 89.7995%, 87.098694%)" offset="1"/></linearGradient><clipPath id="id11"><path d="M 168 89 L 228 89 L 228 274 L 168 274 Z M 168 89 " clip-rule="nonzero"/></clipPath><clipPath id="id12"><path d="M 180.890625 285.269531 L 84.054688 188.433594 L 182.867188 89.621094 L 279.703125 186.457031 Z M 180.890625 285.269531 " clip-rule="nonzero"/></clipPath><clipPath id="id13"><path d="M 180.890625 285.269531 L 84.054688 188.433594 L 182.867188 89.621094 L 279.703125 186.457031 Z M 180.890625 285.269531 " clip-rule="nonzero"/></clipPath><clipPath id="id14"><path d="M 168.609375 235.824219 L 168.613281 238.578125 C 169.40625 238.578125 170.195312 238.542969 170.984375 238.464844 C 171.773438 238.386719 172.558594 238.269531 173.332031 238.117188 C 174.109375 237.964844 174.878906 237.773438 175.636719 237.542969 C 176.394531 237.3125 177.136719 237.046875 177.871094 236.746094 C 178.601562 236.441406 179.316406 236.105469 180.015625 235.730469 C 180.710938 235.359375 181.390625 234.953125 182.046875 234.515625 C 182.707031 234.074219 183.339844 233.605469 183.953125 233.101562 C 184.566406 232.601562 185.152344 232.070312 185.710938 231.511719 C 186.269531 230.949219 186.800781 230.363281 187.300781 229.753906 C 187.804688 229.140625 188.273438 228.507812 188.714844 227.847656 C 189.152344 227.191406 189.558594 226.511719 189.933594 225.8125 C 190.304688 225.117188 190.640625 224.402344 190.945312 223.667969 C 191.246094 222.9375 191.511719 222.195312 191.742188 221.4375 C 191.972656 220.679688 192.164062 219.910156 192.316406 219.132812 C 192.472656 218.355469 192.585938 217.574219 192.664062 216.785156 C 192.742188 215.996094 192.78125 215.207031 192.78125 214.414062 L 192.578125 99.332031 L 189.816406 96.570312 L 190.023438 214.410156 C 190.023438 215.109375 189.988281 215.8125 189.921875 216.511719 C 189.855469 217.210938 189.75 217.902344 189.613281 218.589844 C 189.480469 219.28125 189.308594 219.960938 189.105469 220.632812 C 188.902344 221.304688 188.667969 221.964844 188.398438 222.613281 C 188.132812 223.261719 187.832031 223.894531 187.5 224.511719 C 187.171875 225.132812 186.8125 225.730469 186.421875 226.316406 C 186.03125 226.898438 185.617188 227.460938 185.171875 228.003906 C 184.726562 228.546875 184.257812 229.0625 183.761719 229.558594 C 183.265625 230.054688 182.746094 230.527344 182.203125 230.972656 C 181.660156 231.414062 181.097656 231.832031 180.515625 232.222656 C 179.933594 232.613281 179.332031 232.972656 178.710938 233.300781 C 178.09375 233.632812 177.460938 233.929688 176.8125 234.199219 C 176.164062 234.46875 175.503906 234.703125 174.832031 234.90625 C 174.160156 235.109375 173.480469 235.277344 172.792969 235.414062 C 172.101562 235.550781 171.410156 235.652344 170.710938 235.722656 C 170.011719 235.789062 169.3125 235.824219 168.609375 235.824219 Z M 183.117188 214.40625 C 183.121094 215.363281 183.027344 216.308594 182.839844 217.246094 C 182.65625 218.183594 182.378906 219.089844 182.015625 219.972656 C 181.652344 220.855469 181.203125 221.691406 180.675781 222.488281 C 180.144531 223.28125 179.542969 224.015625 178.867188 224.6875 C 178.195312 225.363281 177.460938 225.964844 176.667969 226.496094 C 175.871094 227.023438 175.035156 227.472656 174.152344 227.835938 C 173.269531 228.199219 172.363281 228.476562 171.425781 228.660156 C 170.488281 228.847656 169.542969 228.941406 168.585938 228.9375 L 168.589844 231.695312 C 169.160156 231.695312 169.722656 231.667969 170.289062 231.613281 C 170.851562 231.558594 171.410156 231.472656 171.96875 231.363281 C 172.523438 231.253906 173.070312 231.117188 173.613281 230.953125 C 174.15625 230.789062 174.6875 230.597656 175.210938 230.382812 C 175.734375 230.164062 176.246094 229.925781 176.746094 229.65625 C 177.242188 229.390625 177.730469 229.101562 178.199219 228.785156 C 178.671875 228.472656 179.125 228.136719 179.5625 227.777344 C 180 227.417969 180.417969 227.039062 180.816406 226.636719 C 181.21875 226.238281 181.597656 225.820312 181.957031 225.382812 C 182.316406 224.945312 182.652344 224.492188 182.964844 224.019531 C 183.28125 223.550781 183.570312 223.0625 183.835938 222.566406 C 184.105469 222.066406 184.34375 221.554688 184.5625 221.03125 C 184.777344 220.507812 184.96875 219.976562 185.132812 219.433594 C 185.296875 218.890625 185.433594 218.34375 185.542969 217.789062 C 185.652344 217.230469 185.738281 216.671875 185.792969 216.109375 C 185.847656 215.542969 185.875 214.980469 185.875 214.410156 L 185.667969 92.417969 L 182.910156 89.664062 Z M 188.648438 234.453125 C 187.339844 235.769531 185.910156 236.945312 184.367188 237.980469 C 182.820312 239.015625 181.191406 239.886719 179.46875 240.59375 C 177.75 241.304688 175.980469 241.835938 174.152344 242.195312 C 172.328125 242.550781 170.484375 242.726562 168.621094 242.71875 L 168.625 245.472656 C 169.644531 245.476562 170.660156 245.425781 171.675781 245.328125 C 172.6875 245.230469 173.695312 245.082031 174.691406 244.886719 C 175.691406 244.6875 176.679688 244.445312 177.652344 244.148438 C 178.625 243.855469 179.582031 243.515625 180.523438 243.125 C 181.464844 242.738281 182.382812 242.304688 183.28125 241.824219 C 184.179688 241.347656 185.050781 240.824219 185.898438 240.261719 C 186.742188 239.695312 187.558594 239.089844 188.34375 238.445312 C 189.132812 237.800781 189.882812 237.121094 190.601562 236.402344 C 191.324219 235.679688 192.003906 234.929688 192.648438 234.140625 C 193.292969 233.355469 193.898438 232.539062 194.464844 231.695312 C 195.027344 230.847656 195.550781 229.976562 196.027344 229.078125 C 196.507812 228.179688 196.941406 227.261719 197.328125 226.320312 C 197.714844 225.382812 198.058594 224.425781 198.351562 223.449219 C 198.644531 222.476562 198.890625 221.488281 199.089844 220.488281 C 199.285156 219.492188 199.433594 218.484375 199.53125 217.472656 C 199.628906 216.457031 199.679688 215.441406 199.675781 214.421875 L 199.484375 106.238281 L 196.726562 103.476562 L 196.917969 214.421875 C 196.925781 216.28125 196.753906 218.128906 196.394531 219.953125 C 196.035156 221.78125 195.503906 223.550781 194.792969 225.273438 C 194.082031 226.992188 193.210938 228.625 192.179688 230.167969 C 191.144531 231.714844 189.96875 233.140625 188.648438 234.453125 Z M 208.183594 253.988281 C 205.597656 256.585938 202.78125 258.90625 199.734375 260.945312 C 196.683594 262.984375 193.464844 264.707031 190.074219 266.105469 C 186.683594 267.503906 183.1875 268.558594 179.582031 269.261719 C 175.980469 269.96875 172.34375 270.3125 168.667969 270.296875 L 168.671875 273.050781 C 170.59375 273.050781 172.511719 272.960938 174.421875 272.777344 C 176.335938 272.59375 178.234375 272.3125 180.117188 271.941406 C 182 271.570312 183.863281 271.109375 185.703125 270.554688 C 187.539062 270 189.347656 269.355469 191.121094 268.621094 C 192.894531 267.890625 194.628906 267.074219 196.320312 266.167969 C 198.015625 265.265625 199.660156 264.28125 201.257812 263.21875 C 202.851562 262.152344 204.390625 261.011719 205.875 259.796875 C 207.359375 258.578125 208.777344 257.292969 210.136719 255.933594 C 211.492188 254.578125 212.777344 253.160156 213.996094 251.675781 C 215.210938 250.191406 216.351562 248.652344 217.417969 247.054688 C 218.484375 245.460938 219.464844 243.816406 220.371094 242.121094 C 221.273438 240.429688 222.089844 238.695312 222.824219 236.921875 C 223.554688 235.144531 224.199219 233.339844 224.753906 231.5 C 225.308594 229.664062 225.769531 227.800781 226.140625 225.917969 C 226.515625 224.03125 226.792969 222.136719 226.976562 220.222656 C 227.160156 218.308594 227.253906 216.394531 227.25 214.472656 L 227.109375 133.859375 L 224.351562 131.101562 L 224.496094 214.46875 C 224.511719 218.144531 224.167969 221.78125 223.460938 225.382812 C 222.757812 228.988281 221.703125 232.484375 220.304688 235.875 C 218.902344 239.265625 217.183594 242.488281 215.144531 245.535156 C 213.105469 248.582031 210.785156 251.402344 208.183594 253.988281 Z M 203.292969 249.09375 C 201.027344 251.375 198.558594 253.410156 195.886719 255.199219 C 193.21875 256.988281 190.398438 258.496094 187.425781 259.726562 C 184.453125 260.953125 181.390625 261.878906 178.230469 262.5 C 175.074219 263.121094 171.886719 263.421875 168.667969 263.410156 L 168.667969 266.164062 C 170.367188 266.167969 172.058594 266.089844 173.746094 265.925781 C 175.433594 265.761719 177.109375 265.515625 178.769531 265.1875 C 180.433594 264.859375 182.078125 264.453125 183.699219 263.960938 C 185.320312 263.472656 186.914062 262.90625 188.480469 262.257812 C 190.046875 261.613281 191.578125 260.890625 193.070312 260.09375 C 194.566406 259.296875 196.019531 258.429688 197.425781 257.488281 C 198.835938 256.550781 200.195312 255.542969 201.503906 254.46875 C 202.8125 253.394531 204.066406 252.261719 205.261719 251.0625 C 206.460938 249.867188 207.59375 248.613281 208.667969 247.304688 C 209.742188 245.992188 210.75 244.636719 211.691406 243.226562 C 212.628906 241.816406 213.496094 240.367188 214.292969 238.871094 C 215.089844 237.378906 215.8125 235.847656 216.460938 234.28125 C 217.105469 232.714844 217.671875 231.121094 218.164062 229.5 C 218.652344 227.875 219.0625 226.234375 219.386719 224.570312 C 219.714844 222.90625 219.960938 221.234375 220.125 219.546875 C 220.289062 217.859375 220.367188 216.164062 220.363281 214.46875 L 220.210938 126.964844 L 217.445312 124.195312 L 217.613281 214.46875 C 217.625 217.6875 217.320312 220.875 216.703125 224.035156 C 216.082031 227.191406 215.15625 230.257812 213.929688 233.230469 C 212.699219 236.203125 211.191406 239.023438 209.402344 241.695312 C 207.613281 244.367188 205.578125 246.835938 203.300781 249.101562 Z M 198.398438 244.203125 C 196.449219 246.160156 194.324219 247.90625 192.027344 249.445312 C 189.730469 250.980469 187.304688 252.273438 184.746094 253.328125 C 182.191406 254.382812 179.554688 255.171875 176.839844 255.703125 C 174.125 256.234375 171.382812 256.492188 168.613281 256.476562 L 168.648438 259.261719 C 170.117188 259.261719 171.585938 259.195312 173.046875 259.050781 C 174.511719 258.910156 175.960938 258.699219 177.402344 258.414062 C 178.84375 258.128906 180.269531 257.773438 181.675781 257.351562 C 183.082031 256.925781 184.464844 256.433594 185.820312 255.875 C 187.179688 255.3125 188.503906 254.6875 189.800781 253.996094 C 191.097656 253.308594 192.355469 252.554688 193.574219 251.738281 C 194.796875 250.925781 195.972656 250.050781 197.109375 249.121094 C 198.246094 248.191406 199.332031 247.207031 200.367188 246.167969 C 201.40625 245.128906 202.390625 244.042969 203.320312 242.910156 C 204.253906 241.773438 205.125 240.597656 205.941406 239.375 C 206.753906 238.152344 207.507812 236.894531 208.199219 235.601562 C 208.886719 234.304688 209.515625 232.976562 210.074219 231.621094 C 210.632812 230.261719 211.125 228.882812 211.550781 227.476562 C 211.976562 226.070312 212.328125 224.644531 212.613281 223.203125 C 212.898438 221.761719 213.109375 220.308594 213.253906 218.847656 C 213.394531 217.382812 213.460938 215.917969 213.460938 214.445312 L 213.296875 120.050781 L 210.539062 117.289062 L 210.707031 214.460938 C 210.71875 217.226562 210.457031 219.96875 209.925781 222.679688 C 209.394531 225.394531 208.601562 228.027344 207.546875 230.582031 C 206.492188 233.136719 205.195312 235.558594 203.660156 237.855469 C 202.121094 240.152344 200.375 242.273438 198.417969 244.21875 Z M 168.632812 249.613281 L 168.636719 252.367188 C 169.882812 252.367188 171.121094 252.308594 172.359375 252.1875 C 173.597656 252.066406 174.824219 251.882812 176.042969 251.640625 C 177.261719 251.398438 178.464844 251.097656 179.65625 250.738281 C 180.84375 250.378906 182.011719 249.960938 183.160156 249.488281 C 184.308594 249.011719 185.429688 248.484375 186.527344 247.898438 C 187.621094 247.3125 188.683594 246.675781 189.71875 245.984375 C 190.75 245.296875 191.746094 244.558594 192.707031 243.769531 C 193.667969 242.984375 194.585938 242.152344 195.460938 241.273438 C 196.339844 240.394531 197.171875 239.476562 197.960938 238.515625 C 198.75 237.558594 199.488281 236.5625 200.175781 235.527344 C 200.867188 234.496094 201.503906 233.429688 202.085938 232.335938 C 202.671875 231.242188 203.203125 230.117188 203.675781 228.972656 C 204.152344 227.824219 204.570312 226.65625 204.929688 225.464844 C 205.289062 224.277344 205.589844 223.074219 205.832031 221.855469 C 206.074219 220.632812 206.253906 219.40625 206.375 218.167969 C 206.496094 216.933594 206.558594 215.691406 206.558594 214.449219 L 206.382812 113.164062 L 203.621094 110.402344 L 203.8125 214.433594 C 203.8125 215.585938 203.757812 216.738281 203.648438 217.886719 C 203.535156 219.035156 203.367188 220.175781 203.144531 221.304688 C 202.917969 222.4375 202.640625 223.554688 202.308594 224.65625 C 201.972656 225.761719 201.585938 226.84375 201.148438 227.910156 C 200.707031 228.976562 200.214844 230.015625 199.671875 231.035156 C 199.132812 232.050781 198.539062 233.039062 197.902344 233.996094 C 197.261719 234.953125 196.574219 235.878906 195.84375 236.769531 C 195.113281 237.660156 194.34375 238.511719 193.527344 239.328125 C 192.714844 240.140625 191.859375 240.914062 190.96875 241.644531 C 190.078125 242.375 189.15625 243.0625 188.195312 243.699219 C 187.238281 244.339844 186.25 244.929688 185.234375 245.472656 C 184.21875 246.015625 183.175781 246.507812 182.109375 246.949219 C 181.046875 247.386719 179.960938 247.773438 178.859375 248.109375 C 177.753906 248.441406 176.636719 248.71875 175.503906 248.945312 C 174.375 249.167969 173.234375 249.335938 172.085938 249.445312 C 170.9375 249.558594 169.785156 249.613281 168.632812 249.613281 Z M 168.632812 249.613281 " clip-rule="nonzero"/></clipPath><linearGradient x1="-50.374079" gradientTransform="matrix(-0.257512, -0.257512, 0.256616, -0.256616, 180.8465, 285.224208)" y1="-13.398582" x2="370.391085" gradientUnits="userSpaceOnUse" y2="498.672373" id="id15"><stop stop-opacity="1" stop-color="rgb(0%, 18.798828%, 100%)" offset="0"/><stop stop-opacity="1" stop-color="rgb(0%, 18.798828%, 100%)" offset="0.25"/><stop stop-opacity="1" stop-color="rgb(0%, 18.798828%, 100%)" offset="0.3125"/><stop stop-opacity="1" stop-color="rgb(0%, 18.798828%, 100%)" offset="0.320312"/><stop stop-opacity="1" stop-color="rgb(0%, 19.126892%, 100%)" offset="0.324219"/><stop stop-opacity="1" stop-color="rgb(0%, 19.456482%, 100%)" offset="0.328125"/><stop stop-opacity="1" stop-color="rgb(0%, 20.007324%, 100%)" offset="0.332031"/><stop stop-opacity="1" stop-color="rgb(0%, 20.559692%, 100%)" offset="0.335938"/><stop stop-opacity="1" stop-color="rgb(0%, 21.110535%, 100%)" offset="0.339844"/><stop stop-opacity="1" stop-color="rgb(0%, 21.661377%, 100%)" offset="0.34375"/><stop stop-opacity="1" stop-color="rgb(0%, 22.212219%, 100%)" offset="0.347656"/><stop stop-opacity="1" stop-color="rgb(0%, 22.764587%, 100%)" offset="0.351562"/><stop stop-opacity="1" stop-color="rgb(0%, 23.31543%, 100%)" offset="0.355469"/><stop stop-opacity="1" stop-color="rgb(0%, 23.866272%, 100%)" offset="0.359375"/><stop stop-opacity="1" stop-color="rgb(0%, 24.417114%, 100%)" offset="0.363281"/><stop stop-opacity="1" stop-color="rgb(0%, 24.969482%, 100%)" offset="0.367187"/><stop stop-opacity="1" stop-color="rgb(0%, 25.520325%, 100%)" offset="0.371094"/><stop stop-opacity="1" stop-color="rgb(0%, 26.072693%, 100%)" offset="0.375"/><stop stop-opacity="1" stop-color="rgb(0%, 26.623535%, 100%)" offset="0.378906"/><stop stop-opacity="1" stop-color="rgb(0%, 27.174377%, 100%)" offset="0.382812"/><stop stop-opacity="1" stop-color="rgb(0%, 27.72522%, 100%)" offset="0.386719"/><stop stop-opacity="1" stop-color="rgb(0%, 28.277588%, 100%)" offset="0.390625"/><stop stop-opacity="1" stop-color="rgb(0%, 28.82843%, 100%)" offset="0.394531"/><stop stop-opacity="1" stop-color="rgb(0%, 29.379272%, 100%)" offset="0.398438"/><stop stop-opacity="1" stop-color="rgb(0%, 29.930115%, 100%)" offset="0.402344"/><stop stop-opacity="1" stop-color="rgb(0%, 30.482483%, 100%)" offset="0.40625"/><stop stop-opacity="1" stop-color="rgb(0%, 31.033325%, 100%)" offset="0.410156"/><stop stop-opacity="1" stop-color="rgb(0%, 31.585693%, 100%)" offset="0.414062"/><stop stop-opacity="1" stop-color="rgb(0%, 32.136536%, 100%)" offset="0.417969"/><stop stop-opacity="1" stop-color="rgb(0%, 32.687378%, 100%)" offset="0.421875"/><stop stop-opacity="1" stop-color="rgb(0%, 33.23822%, 100%)" offset="0.425781"/><stop stop-opacity="1" stop-color="rgb(0%, 33.790588%, 100%)" offset="0.429688"/><stop stop-opacity="1" stop-color="rgb(0%, 34.341431%, 100%)" offset="0.433594"/><stop stop-opacity="1" stop-color="rgb(0%, 34.892273%, 100%)" offset="0.4375"/><stop stop-opacity="1" stop-color="rgb(0%, 35.443115%, 100%)" offset="0.441406"/><stop stop-opacity="1" stop-color="rgb(0%, 35.995483%, 100%)" offset="0.445312"/><stop stop-opacity="1" stop-color="rgb(0%, 36.546326%, 100%)" offset="0.449219"/><stop stop-opacity="1" stop-color="rgb(0%, 37.098694%, 100%)" offset="0.453125"/><stop stop-opacity="1" stop-color="rgb(0%, 37.649536%, 100%)" offset="0.457031"/><stop stop-opacity="1" stop-color="rgb(0%, 38.200378%, 100%)" offset="0.460937"/><stop stop-opacity="1" stop-color="rgb(0%, 38.751221%, 100%)" offset="0.464844"/><stop stop-opacity="1" stop-color="rgb(0%, 39.303589%, 100%)" offset="0.46875"/><stop stop-opacity="1" stop-color="rgb(0%, 39.854431%, 100%)" offset="0.472656"/><stop stop-opacity="1" stop-color="rgb(0%, 40.405273%, 100%)" offset="0.476562"/><stop stop-opacity="1" stop-color="rgb(0%, 40.956116%, 100%)" offset="0.480469"/><stop stop-opacity="1" stop-color="rgb(0%, 41.508484%, 100%)" offset="0.484375"/><stop stop-opacity="1" stop-color="rgb(0%, 42.059326%, 100%)" offset="0.488281"/><stop stop-opacity="1" stop-color="rgb(0%, 42.611694%, 100%)" offset="0.492188"/><stop stop-opacity="1" stop-color="rgb(0%, 43.162537%, 100%)" offset="0.496094"/><stop stop-opacity="1" stop-color="rgb(0%, 43.713379%, 100%)" offset="0.5"/><stop stop-opacity="1" stop-color="rgb(0%, 44.264221%, 100%)" offset="0.503906"/><stop stop-opacity="1" stop-color="rgb(0%, 44.816589%, 100%)" offset="0.507812"/><stop stop-opacity="1" stop-color="rgb(0%, 45.367432%, 100%)" offset="0.511719"/><stop stop-opacity="1" stop-color="rgb(0%, 45.918274%, 100%)" offset="0.515625"/><stop stop-opacity="1" stop-color="rgb(0%, 46.469116%, 100%)" offset="0.519531"/><stop stop-opacity="1" stop-color="rgb(0%, 47.021484%, 100%)" offset="0.523438"/><stop stop-opacity="1" stop-color="rgb(0%, 47.572327%, 100%)" offset="0.527344"/><stop stop-opacity="1" stop-color="rgb(0%, 48.124695%, 100%)" offset="0.53125"/><stop stop-opacity="1" stop-color="rgb(0%, 48.675537%, 100%)" offset="0.535156"/><stop stop-opacity="1" stop-color="rgb(0%, 49.226379%, 100%)" offset="0.539062"/><stop stop-opacity="1" stop-color="rgb(0%, 49.777222%, 100%)" offset="0.542969"/><stop stop-opacity="1" stop-color="rgb(0%, 50.32959%, 100%)" offset="0.546875"/><stop stop-opacity="1" stop-color="rgb(0%, 50.880432%, 100%)" offset="0.550781"/><stop stop-opacity="1" stop-color="rgb(0%, 51.4328%, 100%)" offset="0.554688"/><stop stop-opacity="1" stop-color="rgb(0%, 51.983643%, 100%)" offset="0.558594"/><stop stop-opacity="1" stop-color="rgb(0%, 52.534485%, 100%)" offset="0.5625"/><stop stop-opacity="1" stop-color="rgb(0%, 53.085327%, 100%)" offset="0.566406"/><stop stop-opacity="1" stop-color="rgb(0%, 53.637695%, 100%)" offset="0.570312"/><stop stop-opacity="1" stop-color="rgb(0%, 54.188538%, 100%)" offset="0.574219"/><stop stop-opacity="1" stop-color="rgb(0%, 54.73938%, 100%)" offset="0.578125"/><stop stop-opacity="1" stop-color="rgb(0%, 55.290222%, 100%)" offset="0.582031"/><stop stop-opacity="1" stop-color="rgb(0%, 55.84259%, 100%)" offset="0.585938"/><stop stop-opacity="1" stop-color="rgb(0%, 56.393433%, 100%)" offset="0.589844"/><stop stop-opacity="1" stop-color="rgb(0%, 56.945801%, 100%)" offset="0.59375"/><stop stop-opacity="1" stop-color="rgb(0%, 57.496643%, 100%)" offset="0.597656"/><stop stop-opacity="1" stop-color="rgb(0%, 58.047485%, 100%)" offset="0.601562"/><stop stop-opacity="1" stop-color="rgb(0%, 58.598328%, 100%)" offset="0.605469"/><stop stop-opacity="1" stop-color="rgb(0%, 59.150696%, 100%)" offset="0.609375"/><stop stop-opacity="1" stop-color="rgb(0%, 59.701538%, 100%)" offset="0.613281"/><stop stop-opacity="1" stop-color="rgb(0%, 60.25238%, 100%)" offset="0.617187"/><stop stop-opacity="1" stop-color="rgb(0%, 60.803223%, 100%)" offset="0.621094"/><stop stop-opacity="1" stop-color="rgb(0%, 61.355591%, 100%)" offset="0.625"/><stop stop-opacity="1" stop-color="rgb(0%, 61.906433%, 100%)" offset="0.628906"/><stop stop-opacity="1" stop-color="rgb(0%, 62.458801%, 100%)" offset="0.632812"/><stop stop-opacity="1" stop-color="rgb(0%, 63.009644%, 100%)" offset="0.636719"/><stop stop-opacity="1" stop-color="rgb(0%, 63.560486%, 100%)" offset="0.640625"/><stop stop-opacity="1" stop-color="rgb(0%, 64.111328%, 100%)" offset="0.644531"/><stop stop-opacity="1" stop-color="rgb(0%, 64.663696%, 100%)" offset="0.648438"/><stop stop-opacity="1" stop-color="rgb(0%, 65.214539%, 100%)" offset="0.652344"/><stop stop-opacity="1" stop-color="rgb(0%, 65.765381%, 100%)" offset="0.65625"/><stop stop-opacity="1" stop-color="rgb(0%, 66.316223%, 100%)" offset="0.660156"/><stop stop-opacity="1" stop-color="rgb(0%, 66.868591%, 100%)" offset="0.664062"/><stop stop-opacity="1" stop-color="rgb(0%, 67.419434%, 100%)" offset="0.667969"/><stop stop-opacity="1" stop-color="rgb(0%, 67.971802%, 100%)" offset="0.671875"/><stop stop-opacity="1" stop-color="rgb(0%, 68.522644%, 100%)" offset="0.675781"/><stop stop-opacity="1" stop-color="rgb(0%, 69.073486%, 100%)" offset="0.679688"/><stop stop-opacity="1" stop-color="rgb(0%, 69.624329%, 100%)" offset="0.683594"/><stop stop-opacity="1" stop-color="rgb(0%, 70.176697%, 100%)" offset="0.6875"/><stop stop-opacity="1" stop-color="rgb(0%, 70.727539%, 100%)" offset="0.691406"/><stop stop-opacity="1" stop-color="rgb(0%, 71.278381%, 100%)" offset="0.695312"/><stop stop-opacity="1" stop-color="rgb(0%, 71.829224%, 100%)" offset="0.699219"/><stop stop-opacity="1" stop-color="rgb(0%, 72.381592%, 100%)" offset="0.703125"/><stop stop-opacity="1" stop-color="rgb(0%, 72.932434%, 100%)" offset="0.707031"/><stop stop-opacity="1" stop-color="rgb(0%, 73.484802%, 100%)" offset="0.710937"/><stop stop-opacity="1" stop-color="rgb(0%, 74.035645%, 100%)" offset="0.714844"/><stop stop-opacity="1" stop-color="rgb(0%, 74.586487%, 100%)" offset="0.71875"/><stop stop-opacity="1" stop-color="rgb(0%, 75.137329%, 100%)" offset="0.722656"/><stop stop-opacity="1" stop-color="rgb(0%, 75.689697%, 100%)" offset="0.726562"/><stop stop-opacity="1" stop-color="rgb(0%, 75.894165%, 100%)" offset="0.730469"/><stop stop-opacity="1" stop-color="rgb(0%, 76.098633%, 100%)" offset="0.734375"/><stop stop-opacity="1" stop-color="rgb(0%, 76.098633%, 100%)" offset="0.75"/><stop stop-opacity="1" stop-color="rgb(0%, 76.098633%, 100%)" offset="1"/></linearGradient></defs><g clip-path="url(#id1)"><g clip-path="url(#id2)"><g clip-path="url(#id3)"><g clip-path="url(#id4)"><path fill="url(#id5)" d="M 109.867188 155.390625 L 110.113281 273.09375 L 184.703125 273.25 L 184.457031 155.546875 Z M 109.867188 155.390625 " fill-rule="nonzero"/></g></g></g></g><g clip-path="url(#id6)"><g clip-path="url(#id7)"><g clip-path="url(#id8)"><g clip-path="url(#id9)"><path fill="url(#id10)" d="M 224.449219 155.519531 L 224.402344 199.875 L 286.851562 199.8125 L 286.898438 155.453125 Z M 224.449219 155.519531 " fill-rule="nonzero"/></g></g></g></g><g clip-path="url(#id11)"><g clip-path="url(#id12)"><g clip-path="url(#id13)"><g clip-path="url(#id14)"><path fill="url(#id15)" d="M 197.917969 302.386719 L 318.945312 181.359375 L 197.917969 60.332031 L 76.894531 181.359375 Z M 197.917969 302.386719 " fill-rule="nonzero"/></g></g></g></g></svg>